control3min_grf.mot
version=1
nRows=10
nColumns 19
inDegrees=yes
endheader
time	1_ground_force_vx	1_ground_force_vy	1_ground_force_vz	1_ground_force_px	1_ground_force_py	1_ground_force_pz	1_ground_torque_x	1_ground_torque_y	1_ground_torque_z	2_ground_force_vx	2_ground_force_vy	2_ground_force_vz	2_ground_force_px	2_ground_force_py	2_ground_force_pz	2_ground_torque_x	2_ground_torque_y	2_ground_torque_z
            0.005000	            4.920258	           75.741834	           -6.520175	           -0.193837	            0.006449	           -0.456409	           -0.003936	           -0.060589	            0.005216	            4.507553	          115.080345	            8.855628	           -0.178221	            0.005788	           -0.683189	            0.001464	            0.037383	            0.002877
            0.005500	            4.554476	           74.839058	           -6.202138	           -0.192917	            0.006439	           -0.453962	           -0.009576	           -0.157354	            0.013040	            4.702201	          113.055885	            8.707537	           -0.178055	            0.005786	           -0.682339	           -0.000451	           -0.010840	           -0.000835
            0.006000	            4.600468	           73.397138	           -6.254291	           -0.193612	            0.006434	           -0.452768	           -0.008888	           -0.141796	            0.012083	            4.473372	          111.581016	            8.937020	           -0.179078	            0.005785	           -0.683174	            0.002446	            0.061014	            0.004887
            0.006500	            4.279033	           71.956327	           -6.580670	           -0.194710	            0.006435	           -0.453076	           -0.014089	           -0.236920	            0.021667	            4.575691	          109.187601	            8.881511	           -0.178256	            0.005786	           -0.682456	            0.002401	            0.057284	            0.004660
            0.007000	            4.463304	           70.152723	           -6.359575	           -0.193682	            0.006443	           -0.454969	           -0.006210	           -0.097602	            0.008848	            4.584934	          106.610026	            8.731527	           -0.178164	            0.005787	           -0.682865	            0.001038	            0.024130	            0.001976
            0.007500	            4.234742	           69.070298	           -6.180220	           -0.194598	            0.006433	           -0.452573	           -0.008038	           -0.131106	            0.011731	            4.265666	          104.214572	            8.816981	           -0.178065	            0.005788	           -0.682794	            0.004014	            0.098070	            0.008297
            0.008000	            4.327098	           67.267069	           -6.050610	           -0.193324	            0.006428	           -0.451528	           -0.000597	           -0.009287	            0.000835	            4.507206	          102.189961	            8.762726	           -0.179158	            0.005782	           -0.682401	            0.001748	            0.039634	            0.003399
            0.008500	            4.189835	           64.563451	           -6.153575	           -0.193057	            0.006447	           -0.455844	           -0.006931	           -0.106800	            0.010179	            4.423537	           99.426888	            8.893694	           -0.178810	            0.005783	           -0.682172	            0.001128	            0.025355	            0.002268
            0.009000	            4.098233	           63.482036	           -6.203841	           -0.194206	            0.006441	           -0.454558	           -0.006870	           -0.106412	            0.010399	            4.474977	           98.138529	            8.748291	           -0.179445	            0.005788	           -0.684397	            0.000736	            0.016142	            0.001439
            0.009500	            4.144468	           62.580323	           -6.116108	           -0.194265	            0.006439	           -0.454108	           -0.009364	           -0.141392	            0.013819	            4.292936	           96.664331	            8.836970	           -0.178891	            0.005792	           -0.685007	            0.003354	            0.075519	            0.006904
